<?xml version="1.0" encoding="UTF-8" standalone="no"?>
<!DOCTYPE svg PUBLIC "-//W3C//DTD SVG 1.0//EN" "http://www.w3.org/TR/2001/PR-SVG-20010719/DTD/svg10.dtd">
<svg width="6cm" height="7cm" viewBox="99 127 103 140" xmlns="http://www.w3.org/2000/svg" xmlns:xlink="http://www.w3.org/1999/xlink">
  <g>
    <rect style="fill: #b3b3b3" x="149.158" y="128" width="15.7895" height="36.8421"/>
    <rect style="fill: none; fill-opacity:0; stroke-width: 1.6; stroke: #000000" x="149.158" y="128" width="15.7895" height="36.8421"/>
    <rect style="fill: none; fill-opacity:0; stroke-width: 0.2; stroke: #000000" x="150.737" y="130.211" width="12.6316" height="4.21053"/>
    <rect style="fill: none; fill-opacity:0; stroke-width: 0.2; stroke: #000000" x="150.737" y="134.421" width="12.6316" height="4.21053"/>
    <rect style="fill: none; fill-opacity:0; stroke-width: 0.2; stroke: #000000" x="150.737" y="138.632" width="12.6316" height="4.21053"/>
    <rect style="fill: none; fill-opacity:0; stroke-width: 0.2; stroke: #000000" x="150.737" y="142.842" width="12.6316" height="4.21053"/>
    <rect style="fill: none; fill-opacity:0; stroke-width: 0.2; stroke: #000000" x="150.737" y="147.895" width="7.89474" height="2.52632"/>
    <ellipse style="fill: #00ff00" cx="162.579" cy="148.316" rx="0.552632" ry="0.552632"/>
    <ellipse style="fill: none; fill-opacity:0; stroke-width: 0.2; stroke: #000000" cx="162.579" cy="148.316" rx="0.552632" ry="0.552632"/>
    <ellipse style="fill: #ffff00" cx="162.579" cy="150" rx="0.552632" ry="0.552632"/>
    <ellipse style="fill: none; fill-opacity:0; stroke-width: 0.2; stroke: #000000" cx="162.579" cy="150" rx="0.552632" ry="0.552632"/>
    <rect style="fill: #ffffff" x="159.421" y="148.737" width="1.89474" height="1.68421"/>
    <rect style="fill: none; fill-opacity:0; stroke-width: 0.2; stroke: #000000" x="159.421" y="148.737" width="1.89474" height="1.68421"/>
    <path style="fill: none; fill-opacity:0; stroke-width: 0.2; stroke: #000000" d="M 151.789 153.789 L 151.789,163"/>
    <path style="fill: none; fill-opacity:0; stroke-width: 0.2; stroke: #000000" d="M 154.421 153.789 L 154.421,163"/>
    <path style="fill: none; fill-opacity:0; stroke-width: 0.2; stroke: #000000" d="M 157.053 153.789 L 157.053,163"/>
    <path style="fill: none; fill-opacity:0; stroke-width: 0.2; stroke: #000000" d="M 159.684 153.789 L 159.684,163"/>
    <path style="fill: none; fill-opacity:0; stroke-width: 0.2; stroke: #000000" d="M 162.316 153.789 L 162.316,163"/>
    <path style="fill: none; fill-opacity:0; stroke-width: 0.2; stroke: #000000" d="M 164.947 153.789 L 164.947,163"/>
    <polygon style="fill: #999999" points="146,168 149.158,161.684 149.158,164.842 164.947,164.842 164.947,161.684 169.158,168 "/>
    <polygon style="fill: none; fill-opacity:0; stroke-width: 0.2; stroke: #000000" points="146,168 149.158,161.684 149.158,164.842 164.947,164.842 164.947,161.684 169.158,168 "/>
    <text font-size="12.7998" style="fill: #000000;text-anchor:middle;font-family:sans-serif;font-style:normal;font-weight:normal" x="157.579" y="181.053">
      <tspan x="157.579" y="181.053"></tspan>
    </text>
  </g>
  <g>
    <rect style="fill: #b3b3b3" x="119.158" y="128" width="15.7895" height="36.8421"/>
    <rect style="fill: none; fill-opacity:0; stroke-width: 1.6; stroke: #000000" x="119.158" y="128" width="15.7895" height="36.8421"/>
    <rect style="fill: none; fill-opacity:0; stroke-width: 0.2; stroke: #000000" x="120.737" y="130.211" width="12.6316" height="4.21053"/>
    <rect style="fill: none; fill-opacity:0; stroke-width: 0.2; stroke: #000000" x="120.737" y="134.421" width="12.6316" height="4.21053"/>
    <rect style="fill: none; fill-opacity:0; stroke-width: 0.2; stroke: #000000" x="120.737" y="138.632" width="12.6316" height="4.21053"/>
    <rect style="fill: none; fill-opacity:0; stroke-width: 0.2; stroke: #000000" x="120.737" y="142.842" width="12.6316" height="4.21053"/>
    <rect style="fill: none; fill-opacity:0; stroke-width: 0.2; stroke: #000000" x="120.737" y="147.895" width="7.89474" height="2.52632"/>
    <ellipse style="fill: #00ff00" cx="132.579" cy="148.316" rx="0.552632" ry="0.552632"/>
    <ellipse style="fill: none; fill-opacity:0; stroke-width: 0.2; stroke: #000000" cx="132.579" cy="148.316" rx="0.552632" ry="0.552632"/>
    <ellipse style="fill: #ffff00" cx="132.579" cy="150" rx="0.552632" ry="0.552632"/>
    <ellipse style="fill: none; fill-opacity:0; stroke-width: 0.2; stroke: #000000" cx="132.579" cy="150" rx="0.552632" ry="0.552632"/>
    <rect style="fill: #ffffff" x="129.421" y="148.737" width="1.89474" height="1.68421"/>
    <rect style="fill: none; fill-opacity:0; stroke-width: 0.2; stroke: #000000" x="129.421" y="148.737" width="1.89474" height="1.68421"/>
    <path style="fill: none; fill-opacity:0; stroke-width: 0.2; stroke: #000000" d="M 121.789 153.789 L 121.789,163"/>
    <path style="fill: none; fill-opacity:0; stroke-width: 0.2; stroke: #000000" d="M 124.421 153.789 L 124.421,163"/>
    <path style="fill: none; fill-opacity:0; stroke-width: 0.2; stroke: #000000" d="M 127.053 153.789 L 127.053,163"/>
    <path style="fill: none; fill-opacity:0; stroke-width: 0.2; stroke: #000000" d="M 129.684 153.789 L 129.684,163"/>
    <path style="fill: none; fill-opacity:0; stroke-width: 0.2; stroke: #000000" d="M 132.316 153.789 L 132.316,163"/>
    <path style="fill: none; fill-opacity:0; stroke-width: 0.2; stroke: #000000" d="M 134.947 153.789 L 134.947,163"/>
    <polygon style="fill: #999999" points="116,168 119.158,161.684 119.158,164.842 134.947,164.842 134.947,161.684 139.158,168 "/>
    <polygon style="fill: none; fill-opacity:0; stroke-width: 0.2; stroke: #000000" points="116,168 119.158,161.684 119.158,164.842 134.947,164.842 134.947,161.684 139.158,168 "/>
    <text font-size="12.7998" style="fill: #000000;text-anchor:middle;font-family:sans-serif;font-style:normal;font-weight:normal" x="127.579" y="181.053">
      <tspan x="127.579" y="181.053"></tspan>
    </text>
  </g>
  <g>
    <line style="fill: none; fill-opacity:0; stroke-width: 2; stroke: #000000" x1="99" y1="188" x2="201" y2="188"/>
    <line style="fill: none; fill-opacity:0; stroke-width: 2; stroke: #000000" x1="114.286" y1="188" x2="114.286" y2="208"/>
    <line style="fill: none; fill-opacity:0; stroke-width: 2; stroke: #000000" x1="128.571" y1="188" x2="128.571" y2="168"/>
    <line style="fill: none; fill-opacity:0; stroke-width: 2; stroke: #000000" x1="142.857" y1="188" x2="142.857" y2="208"/>
    <line style="fill: none; fill-opacity:0; stroke-width: 2; stroke: #000000" x1="157.143" y1="188" x2="157.143" y2="168"/>
    <line style="fill: none; fill-opacity:0; stroke-width: 2; stroke: #000000" x1="171.429" y1="188" x2="171.429" y2="208"/>
    <line style="fill: none; fill-opacity:0; stroke-width: 2; stroke: #000000" x1="185.714" y1="188" x2="185.714" y2="168"/>
  </g>
  <g>
    <rect style="fill: #b3b3b3" x="177.158" y="128" width="15.7895" height="36.8421"/>
    <rect style="fill: none; fill-opacity:0; stroke-width: 1.6; stroke: #000000" x="177.158" y="128" width="15.7895" height="36.8421"/>
    <rect style="fill: none; fill-opacity:0; stroke-width: 0.2; stroke: #000000" x="178.737" y="130.211" width="12.6316" height="4.21053"/>
    <rect style="fill: none; fill-opacity:0; stroke-width: 0.2; stroke: #000000" x="178.737" y="134.421" width="12.6316" height="4.21053"/>
    <rect style="fill: none; fill-opacity:0; stroke-width: 0.2; stroke: #000000" x="178.737" y="138.632" width="12.6316" height="4.21053"/>
    <rect style="fill: none; fill-opacity:0; stroke-width: 0.2; stroke: #000000" x="178.737" y="142.842" width="12.6316" height="4.21053"/>
    <rect style="fill: none; fill-opacity:0; stroke-width: 0.2; stroke: #000000" x="178.737" y="147.895" width="7.89474" height="2.52632"/>
    <ellipse style="fill: #00ff00" cx="190.579" cy="148.316" rx="0.552632" ry="0.552632"/>
    <ellipse style="fill: none; fill-opacity:0; stroke-width: 0.2; stroke: #000000" cx="190.579" cy="148.316" rx="0.552632" ry="0.552632"/>
    <ellipse style="fill: #ffff00" cx="190.579" cy="150" rx="0.552632" ry="0.552632"/>
    <ellipse style="fill: none; fill-opacity:0; stroke-width: 0.2; stroke: #000000" cx="190.579" cy="150" rx="0.552632" ry="0.552632"/>
    <rect style="fill: #ffffff" x="187.421" y="148.737" width="1.89474" height="1.68421"/>
    <rect style="fill: none; fill-opacity:0; stroke-width: 0.2; stroke: #000000" x="187.421" y="148.737" width="1.89474" height="1.68421"/>
    <path style="fill: none; fill-opacity:0; stroke-width: 0.2; stroke: #000000" d="M 179.789 153.789 L 179.789,163"/>
    <path style="fill: none; fill-opacity:0; stroke-width: 0.2; stroke: #000000" d="M 182.421 153.789 L 182.421,163"/>
    <path style="fill: none; fill-opacity:0; stroke-width: 0.2; stroke: #000000" d="M 185.053 153.789 L 185.053,163"/>
    <path style="fill: none; fill-opacity:0; stroke-width: 0.2; stroke: #000000" d="M 187.684 153.789 L 187.684,163"/>
    <path style="fill: none; fill-opacity:0; stroke-width: 0.2; stroke: #000000" d="M 190.316 153.789 L 190.316,163"/>
    <path style="fill: none; fill-opacity:0; stroke-width: 0.2; stroke: #000000" d="M 192.947 153.789 L 192.947,163"/>
    <polygon style="fill: #999999" points="174,168 177.158,161.684 177.158,164.842 192.947,164.842 192.947,161.684 197.158,168 "/>
    <polygon style="fill: none; fill-opacity:0; stroke-width: 0.2; stroke: #000000" points="174,168 177.158,161.684 177.158,164.842 192.947,164.842 192.947,161.684 197.158,168 "/>
    <text font-size="12.7998" style="fill: #000000;text-anchor:middle;font-family:sans-serif;font-style:normal;font-weight:normal" x="185.579" y="181.053">
      <tspan x="185.579" y="181.053"></tspan>
    </text>
  </g>
  <g>
    <rect style="fill: #b3b3b3" x="105.158" y="208" width="15.7895" height="36.8421"/>
    <rect style="fill: none; fill-opacity:0; stroke-width: 1.6; stroke: #000000" x="105.158" y="208" width="15.7895" height="36.8421"/>
    <rect style="fill: none; fill-opacity:0; stroke-width: 0.2; stroke: #000000" x="106.737" y="210.211" width="12.6316" height="4.21053"/>
    <rect style="fill: none; fill-opacity:0; stroke-width: 0.2; stroke: #000000" x="106.737" y="214.421" width="12.6316" height="4.21053"/>
    <rect style="fill: none; fill-opacity:0; stroke-width: 0.2; stroke: #000000" x="106.737" y="218.632" width="12.6316" height="4.21053"/>
    <rect style="fill: none; fill-opacity:0; stroke-width: 0.2; stroke: #000000" x="106.737" y="222.842" width="12.6316" height="4.21053"/>
    <rect style="fill: none; fill-opacity:0; stroke-width: 0.2; stroke: #000000" x="106.737" y="227.895" width="7.89474" height="2.52632"/>
    <ellipse style="fill: #00ff00" cx="118.579" cy="228.316" rx="0.552632" ry="0.552632"/>
    <ellipse style="fill: none; fill-opacity:0; stroke-width: 0.2; stroke: #000000" cx="118.579" cy="228.316" rx="0.552632" ry="0.552632"/>
    <ellipse style="fill: #ffff00" cx="118.579" cy="230" rx="0.552632" ry="0.552632"/>
    <ellipse style="fill: none; fill-opacity:0; stroke-width: 0.2; stroke: #000000" cx="118.579" cy="230" rx="0.552632" ry="0.552632"/>
    <rect style="fill: #ffffff" x="115.421" y="228.737" width="1.89474" height="1.68421"/>
    <rect style="fill: none; fill-opacity:0; stroke-width: 0.2; stroke: #000000" x="115.421" y="228.737" width="1.89474" height="1.68421"/>
    <path style="fill: none; fill-opacity:0; stroke-width: 0.2; stroke: #000000" d="M 107.789 233.789 L 107.789,243"/>
    <path style="fill: none; fill-opacity:0; stroke-width: 0.2; stroke: #000000" d="M 110.421 233.789 L 110.421,243"/>
    <path style="fill: none; fill-opacity:0; stroke-width: 0.2; stroke: #000000" d="M 113.053 233.789 L 113.053,243"/>
    <path style="fill: none; fill-opacity:0; stroke-width: 0.2; stroke: #000000" d="M 115.684 233.789 L 115.684,243"/>
    <path style="fill: none; fill-opacity:0; stroke-width: 0.2; stroke: #000000" d="M 118.316 233.789 L 118.316,243"/>
    <path style="fill: none; fill-opacity:0; stroke-width: 0.2; stroke: #000000" d="M 120.947 233.789 L 120.947,243"/>
    <polygon style="fill: #999999" points="102,248 105.158,241.684 105.158,244.842 120.947,244.842 120.947,241.684 125.158,248 "/>
    <polygon style="fill: none; fill-opacity:0; stroke-width: 0.2; stroke: #000000" points="102,248 105.158,241.684 105.158,244.842 120.947,244.842 120.947,241.684 125.158,248 "/>
    <text font-size="12.7998" style="fill: #000000;text-anchor:middle;font-family:sans-serif;font-style:normal;font-weight:normal" x="113.579" y="261.053">
      <tspan x="113.579" y="261.053"></tspan>
    </text>
  </g>
  <g>
    <rect style="fill: #b3b3b3" x="135.158" y="208" width="15.7895" height="36.8421"/>
    <rect style="fill: none; fill-opacity:0; stroke-width: 1.6; stroke: #000000" x="135.158" y="208" width="15.7895" height="36.8421"/>
    <rect style="fill: none; fill-opacity:0; stroke-width: 0.2; stroke: #000000" x="136.737" y="210.211" width="12.6316" height="4.21053"/>
    <rect style="fill: none; fill-opacity:0; stroke-width: 0.2; stroke: #000000" x="136.737" y="214.421" width="12.6316" height="4.21053"/>
    <rect style="fill: none; fill-opacity:0; stroke-width: 0.2; stroke: #000000" x="136.737" y="218.632" width="12.6316" height="4.21053"/>
    <rect style="fill: none; fill-opacity:0; stroke-width: 0.2; stroke: #000000" x="136.737" y="222.842" width="12.6316" height="4.21053"/>
    <rect style="fill: none; fill-opacity:0; stroke-width: 0.2; stroke: #000000" x="136.737" y="227.895" width="7.89474" height="2.52632"/>
    <ellipse style="fill: #00ff00" cx="148.579" cy="228.316" rx="0.552632" ry="0.552632"/>
    <ellipse style="fill: none; fill-opacity:0; stroke-width: 0.2; stroke: #000000" cx="148.579" cy="228.316" rx="0.552632" ry="0.552632"/>
    <ellipse style="fill: #ffff00" cx="148.579" cy="230" rx="0.552632" ry="0.552632"/>
    <ellipse style="fill: none; fill-opacity:0; stroke-width: 0.2; stroke: #000000" cx="148.579" cy="230" rx="0.552632" ry="0.552632"/>
    <rect style="fill: #ffffff" x="145.421" y="228.737" width="1.89474" height="1.68421"/>
    <rect style="fill: none; fill-opacity:0; stroke-width: 0.2; stroke: #000000" x="145.421" y="228.737" width="1.89474" height="1.68421"/>
    <path style="fill: none; fill-opacity:0; stroke-width: 0.2; stroke: #000000" d="M 137.789 233.789 L 137.789,243"/>
    <path style="fill: none; fill-opacity:0; stroke-width: 0.2; stroke: #000000" d="M 140.421 233.789 L 140.421,243"/>
    <path style="fill: none; fill-opacity:0; stroke-width: 0.2; stroke: #000000" d="M 143.053 233.789 L 143.053,243"/>
    <path style="fill: none; fill-opacity:0; stroke-width: 0.2; stroke: #000000" d="M 145.684 233.789 L 145.684,243"/>
    <path style="fill: none; fill-opacity:0; stroke-width: 0.2; stroke: #000000" d="M 148.316 233.789 L 148.316,243"/>
    <path style="fill: none; fill-opacity:0; stroke-width: 0.2; stroke: #000000" d="M 150.947 233.789 L 150.947,243"/>
    <polygon style="fill: #999999" points="132,248 135.158,241.684 135.158,244.842 150.947,244.842 150.947,241.684 155.158,248 "/>
    <polygon style="fill: none; fill-opacity:0; stroke-width: 0.2; stroke: #000000" points="132,248 135.158,241.684 135.158,244.842 150.947,244.842 150.947,241.684 155.158,248 "/>
    <text font-size="12.7998" style="fill: #000000;text-anchor:middle;font-family:sans-serif;font-style:normal;font-weight:normal" x="143.579" y="261.053">
      <tspan x="143.579" y="261.053"></tspan>
    </text>
  </g>
  <g>
    <polygon style="fill: #000000" points="161.778,208 179.722,208 179.722,218.389 183.5,225 158,225 161.778,218.389 "/>
    <polygon style="fill: none; fill-opacity:0; stroke-width: 2; stroke: #000000" points="161.778,208 179.722,208 179.722,218.389 183.5,225 158,225 161.778,218.389 "/>
    <polygon style="fill: none; fill-opacity:0; stroke-width: 0.2; stroke: #ffffff" points="161.778,208 179.722,208 179.722,218.389 183.5,225 158,225 161.778,218.389 "/>
    <line style="fill: none; fill-opacity:0; stroke-width: 0.2; stroke: #808080" x1="161.778" y1="218.389" x2="179.722" y2="218.389"/>
    <polygon style="fill: #ffffff" points="162.25,208.472 179.25,208.472 179.25,217.917 162.25,217.917 "/>
    <polygon style="fill: none; fill-opacity:0; stroke-width: 2; stroke: #000000" points="162.25,208.472 179.25,208.472 179.25,217.917 162.25,217.917 "/>
    <polygon style="fill: none; fill-opacity:0; stroke-width: 0.2; stroke: #000000" points="162.25,208.472 179.25,208.472 179.25,217.917 162.25,217.917 "/>
    <line style="fill: none; fill-opacity:0; stroke-width: 0.2; stroke: #ffffff" x1="161.542" y1="220.514" x2="179.958" y2="220.514"/>
    <line style="fill: none; fill-opacity:0; stroke-width: 0.2; stroke: #ffffff" x1="161.188" y1="221.104" x2="180.313" y2="221.104"/>
    <line style="fill: none; fill-opacity:0; stroke-width: 0.2; stroke: #ffffff" x1="161.896" y1="219.924" x2="179.604" y2="219.924"/>
    <line style="fill: none; fill-opacity:0; stroke-width: 0.2; stroke: #ffffff" x1="160.833" y1="221.694" x2="162.25" y2="219.333"/>
    <line style="fill: none; fill-opacity:0; stroke-width: 0.2; stroke: #ffffff" x1="180.667" y1="221.694" x2="179.25" y2="219.333"/>
    <line style="fill: none; fill-opacity:0; stroke-width: 0.2; stroke: #ffffff" x1="160.833" y1="221.694" x2="180.667" y2="221.694"/>
    <line style="fill: none; fill-opacity:0; stroke-width: 0.2; stroke: #ffffff" x1="162.25" y1="219.333" x2="179.25" y2="219.333"/>
    <line style="fill: none; fill-opacity:0; stroke-width: 0.2; stroke: #ffffff" x1="165.792" y1="221.694" x2="165.969" y2="221.104"/>
    <line style="fill: none; fill-opacity:0; stroke-width: 0.2; stroke: #ffffff" x1="175.528" y1="221.104" x2="175.531" y2="221.104"/>
    <line style="fill: none; fill-opacity:0; stroke-width: 0.2; stroke: #ffffff" x1="175.708" y1="221.694" x2="175.528" y2="221.104"/>
    <polygon style="fill: none; fill-opacity:0; stroke-width: 0.2; stroke-dasharray: 4; stroke: #ffffff" points="169.333,222.639 172.167,222.639 172.639,224.056 168.861,224.056 "/>
  </g>
</svg>
